# WaveFront *.obj file (generated by Autodesk ATF)

mtllib Case v5_Case v5_Left.mtl

g Left

v -330.000000 -150.000000 0.000000
v 330.000000 -150.000000 0.000000
v 330.000000 -210.000000 0.000000
v -330.000000 -210.000000 0.000000
v 330.000000 -150.000000 650.000000
v -330.000000 -150.000000 650.000000
v -330.000000 -210.000000 650.000000
v 330.000000 -210.000000 650.000000
v -10.000000 -210.000000 120.000000
v -210.000000 -210.000000 120.000000
v -210.000000 -210.000000 320.000000
v -10.000000 -210.000000 320.000000
v -10.000000 -150.000000 120.000000
v -210.000000 -150.000000 120.000000
v -210.000000 -150.000000 320.000000
v -10.000000 -150.000000 320.000000
vt 33.000000 -15.000000 0.000000
vt -33.000000 -15.000000 0.000000
vt 33.000000 -21.000000 0.000000
vt -33.000000 -21.000000 0.000000
vt 33.000000 -15.000000 0.000000
vt -33.000000 -15.000000 0.000000
vt 33.000000 -21.000000 0.000000
vt -33.000000 -21.000000 0.000000
vt 12.000000 12.000000 0.000000
vt 0.000000 0.000000 0.000000
vt 32.000000 12.000000 0.000000
vt 66.000000 0.000000 0.000000
vt 32.000000 32.000000 0.000000
vt 66.000000 65.000000 0.000000
vt 0.000000 65.000000 0.000000
vt 12.000000 32.000000 0.000000
vt 6.000000 65.000000 0.000000
vt 0.000000 65.000000 0.000000
vt 6.000000 0.000000 0.000000
vt 0.000000 0.000000 0.000000
vt -0.000000 6.000000 0.000000
vt -20.000000 6.000000 0.000000
vt -0.000000 0.000000 0.000000
vt -20.000000 0.000000 0.000000
vt -0.000000 6.000000 0.000000
vt -20.000000 6.000000 0.000000
vt -0.000000 0.000000 0.000000
vt -20.000000 0.000000 0.000000
vt 0.000000 6.000000 0.000000
vt -20.000000 6.000000 0.000000
vt 0.000000 0.000000 0.000000
vt -20.000000 0.000000 0.000000
vt -0.000000 6.000000 0.000000
vt -20.000000 6.000000 0.000000
vt -0.000000 0.000000 0.000000
vt -20.000000 0.000000 0.000000
vt 36.000000 0.000000 0.000000
vt 42.000000 0.000000 0.000000
vt 36.000000 65.000000 0.000000
vt 42.000000 65.000000 0.000000
vt -0.500000 -21.000000 0.000000
vt -20.500000 -21.000000 0.000000
vt -32.500000 -33.000000 0.000000
vt -20.500000 -1.000000 0.000000
vt -32.500000 33.000000 0.000000
vt -0.500000 -1.000000 0.000000
vt 32.500000 33.000000 0.000000
vt 32.500000 -33.000000 0.000000
vn -0.000000 0.000000 -0.100000
vn -0.000000 0.000000 -0.100000
vn -0.000000 0.000000 -0.100000
vn -0.000000 0.000000 -0.100000
vn 0.000000 0.000000 0.100000
vn 0.000000 0.000000 0.100000
vn 0.000000 0.000000 0.100000
vn 0.000000 0.000000 0.100000
vn 0.000000 -0.100000 0.000000
vn 0.000000 -0.100000 0.000000
vn 0.000000 -0.100000 0.000000
vn 0.000000 -0.100000 0.000000
vn 0.000000 -0.100000 0.000000
vn 0.000000 -0.100000 0.000000
vn 0.000000 -0.100000 0.000000
vn 0.000000 -0.100000 0.000000
vn 0.100000 0.000000 0.000000
vn 0.100000 0.000000 0.000000
vn 0.100000 0.000000 0.000000
vn 0.100000 0.000000 0.000000
vn 0.000000 0.000000 0.100000
vn 0.000000 0.000000 0.100000
vn 0.000000 0.000000 0.100000
vn 0.000000 0.000000 0.100000
vn 0.100000 0.000000 0.000000
vn 0.100000 0.000000 0.000000
vn 0.100000 0.000000 0.000000
vn 0.100000 0.000000 0.000000
vn -0.100000 0.000000 0.000000
vn -0.100000 0.000000 0.000000
vn -0.100000 0.000000 0.000000
vn -0.100000 0.000000 0.000000
vn -0.000000 0.000000 -0.100000
vn -0.000000 0.000000 -0.100000
vn -0.000000 0.000000 -0.100000
vn -0.000000 0.000000 -0.100000
vn -0.100000 0.000000 0.000000
vn -0.100000 0.000000 0.000000
vn -0.100000 0.000000 0.000000
vn -0.100000 0.000000 0.000000
vn 0.000000 0.100000 0.000000
vn 0.000000 0.100000 0.000000
vn 0.000000 0.100000 0.000000
vn 0.000000 0.100000 0.000000
vn 0.000000 0.100000 0.000000
vn 0.000000 0.100000 0.000000
vn 0.000000 0.100000 0.000000
vn 0.000000 0.100000 0.000000
usemtl Steel_-_Satin
f 1/1/1 2/2/2 4/3/3
f 4/3/3 2/2/2 3/4/4
f 5/5/5 6/6/6 8/7/7
f 8/7/7 6/6/6 7/8/8
f 10/9/9 4/10/10 9/11/11
f 9/11/11 4/10/10 3/12/12
f 9/11/11 3/12/12 12/13/13
f 12/13/13 3/12/12 8/14/14
f 12/13/13 8/14/14 7/15/15
f 10/9/9 11/16/16 4/10/10
f 4/10/10 11/16/16 7/15/15
f 7/15/15 11/16/16 12/13/13
f 5/17/17 8/18/18 2/19/19
f 2/19/19 8/18/18 3/20/20
f 13/21/21 14/22/22 9/23/23
f 9/23/23 14/22/22 10/24/24
f 14/25/25 15/26/26 10/27/27
f 10/27/27 15/26/26 11/28/28
f 16/29/29 13/30/30 12/31/31
f 12/31/31 13/30/30 9/32/32
f 15/33/33 16/34/34 11/35/35
f 11/35/35 16/34/34 12/36/36
f 1/37/37 4/38/38 6/39/39
f 6/39/39 4/38/38 7/40/40
f 15/41/41 14/42/42 1/43/43
f 1/43/43 14/42/42 13/44/44
f 1/43/43 13/44/44 2/45/45
f 2/45/45 13/44/44 16/46/46
f 2/45/45 16/46/46 5/47/47
f 5/47/47 16/46/46 6/48/48
f 6/48/48 16/46/46 15/41/41
f 6/48/48 15/41/41 1/43/43
# 16 vertices
# 48 texture params
# 48 normals
# 32 facets

# 1 groups
